%TF.GenerationSoftware,KiCad,Pcbnew,7.0.6*%
%TF.CreationDate,2024-08-06T23:51:48+05:30*%
%TF.ProjectId,Icon_Power_Load_V2,49636f6e-5f50-46f7-9765-725f4c6f6164,rev?*%
%TF.SameCoordinates,Original*%
%TF.FileFunction,Legend,Bot*%
%TF.FilePolarity,Positive*%
%FSLAX46Y46*%
G04 Gerber Fmt 4.6, Leading zero omitted, Abs format (unit mm)*
G04 Created by KiCad (PCBNEW 7.0.6) date 2024-08-06 23:51:48*
%MOMM*%
%LPD*%
G01*
G04 APERTURE LIST*
%ADD10C,0.150000*%
G04 APERTURE END LIST*
D10*
X170270009Y-116274191D02*
X170270009Y-116607524D01*
X170793819Y-116750381D02*
X170793819Y-116274191D01*
X170793819Y-116274191D02*
X169793819Y-116274191D01*
X169793819Y-116274191D02*
X169793819Y-116750381D01*
X170746200Y-117131334D02*
X170793819Y-117274191D01*
X170793819Y-117274191D02*
X170793819Y-117512286D01*
X170793819Y-117512286D02*
X170746200Y-117607524D01*
X170746200Y-117607524D02*
X170698580Y-117655143D01*
X170698580Y-117655143D02*
X170603342Y-117702762D01*
X170603342Y-117702762D02*
X170508104Y-117702762D01*
X170508104Y-117702762D02*
X170412866Y-117655143D01*
X170412866Y-117655143D02*
X170365247Y-117607524D01*
X170365247Y-117607524D02*
X170317628Y-117512286D01*
X170317628Y-117512286D02*
X170270009Y-117321810D01*
X170270009Y-117321810D02*
X170222390Y-117226572D01*
X170222390Y-117226572D02*
X170174771Y-117178953D01*
X170174771Y-117178953D02*
X170079533Y-117131334D01*
X170079533Y-117131334D02*
X169984295Y-117131334D01*
X169984295Y-117131334D02*
X169889057Y-117178953D01*
X169889057Y-117178953D02*
X169841438Y-117226572D01*
X169841438Y-117226572D02*
X169793819Y-117321810D01*
X169793819Y-117321810D02*
X169793819Y-117559905D01*
X169793819Y-117559905D02*
X169841438Y-117702762D01*
X170793819Y-118131334D02*
X169793819Y-118131334D01*
X169793819Y-118131334D02*
X169793819Y-118512286D01*
X169793819Y-118512286D02*
X169841438Y-118607524D01*
X169841438Y-118607524D02*
X169889057Y-118655143D01*
X169889057Y-118655143D02*
X169984295Y-118702762D01*
X169984295Y-118702762D02*
X170127152Y-118702762D01*
X170127152Y-118702762D02*
X170222390Y-118655143D01*
X170222390Y-118655143D02*
X170270009Y-118607524D01*
X170270009Y-118607524D02*
X170317628Y-118512286D01*
X170317628Y-118512286D02*
X170317628Y-118131334D01*
X169793819Y-119036096D02*
X169793819Y-119655143D01*
X169793819Y-119655143D02*
X170174771Y-119321810D01*
X170174771Y-119321810D02*
X170174771Y-119464667D01*
X170174771Y-119464667D02*
X170222390Y-119559905D01*
X170222390Y-119559905D02*
X170270009Y-119607524D01*
X170270009Y-119607524D02*
X170365247Y-119655143D01*
X170365247Y-119655143D02*
X170603342Y-119655143D01*
X170603342Y-119655143D02*
X170698580Y-119607524D01*
X170698580Y-119607524D02*
X170746200Y-119559905D01*
X170746200Y-119559905D02*
X170793819Y-119464667D01*
X170793819Y-119464667D02*
X170793819Y-119178953D01*
X170793819Y-119178953D02*
X170746200Y-119083715D01*
X170746200Y-119083715D02*
X170698580Y-119036096D01*
X169889057Y-120036096D02*
X169841438Y-120083715D01*
X169841438Y-120083715D02*
X169793819Y-120178953D01*
X169793819Y-120178953D02*
X169793819Y-120417048D01*
X169793819Y-120417048D02*
X169841438Y-120512286D01*
X169841438Y-120512286D02*
X169889057Y-120559905D01*
X169889057Y-120559905D02*
X169984295Y-120607524D01*
X169984295Y-120607524D02*
X170079533Y-120607524D01*
X170079533Y-120607524D02*
X170222390Y-120559905D01*
X170222390Y-120559905D02*
X170793819Y-119988477D01*
X170793819Y-119988477D02*
X170793819Y-120607524D01*
X170412866Y-121036096D02*
X170412866Y-121798001D01*
X169793819Y-122178953D02*
X170793819Y-122417048D01*
X170793819Y-122417048D02*
X170079533Y-122607524D01*
X170079533Y-122607524D02*
X170793819Y-122798000D01*
X170793819Y-122798000D02*
X169793819Y-123036096D01*
X170793819Y-123988476D02*
X170317628Y-123655143D01*
X170793819Y-123417048D02*
X169793819Y-123417048D01*
X169793819Y-123417048D02*
X169793819Y-123798000D01*
X169793819Y-123798000D02*
X169841438Y-123893238D01*
X169841438Y-123893238D02*
X169889057Y-123940857D01*
X169889057Y-123940857D02*
X169984295Y-123988476D01*
X169984295Y-123988476D02*
X170127152Y-123988476D01*
X170127152Y-123988476D02*
X170222390Y-123940857D01*
X170222390Y-123940857D02*
X170270009Y-123893238D01*
X170270009Y-123893238D02*
X170317628Y-123798000D01*
X170317628Y-123798000D02*
X170317628Y-123417048D01*
X169793819Y-124607524D02*
X169793819Y-124798000D01*
X169793819Y-124798000D02*
X169841438Y-124893238D01*
X169841438Y-124893238D02*
X169936676Y-124988476D01*
X169936676Y-124988476D02*
X170127152Y-125036095D01*
X170127152Y-125036095D02*
X170460485Y-125036095D01*
X170460485Y-125036095D02*
X170650961Y-124988476D01*
X170650961Y-124988476D02*
X170746200Y-124893238D01*
X170746200Y-124893238D02*
X170793819Y-124798000D01*
X170793819Y-124798000D02*
X170793819Y-124607524D01*
X170793819Y-124607524D02*
X170746200Y-124512286D01*
X170746200Y-124512286D02*
X170650961Y-124417048D01*
X170650961Y-124417048D02*
X170460485Y-124369429D01*
X170460485Y-124369429D02*
X170127152Y-124369429D01*
X170127152Y-124369429D02*
X169936676Y-124417048D01*
X169936676Y-124417048D02*
X169841438Y-124512286D01*
X169841438Y-124512286D02*
X169793819Y-124607524D01*
X169793819Y-125655143D02*
X169793819Y-125845619D01*
X169793819Y-125845619D02*
X169841438Y-125940857D01*
X169841438Y-125940857D02*
X169936676Y-126036095D01*
X169936676Y-126036095D02*
X170127152Y-126083714D01*
X170127152Y-126083714D02*
X170460485Y-126083714D01*
X170460485Y-126083714D02*
X170650961Y-126036095D01*
X170650961Y-126036095D02*
X170746200Y-125940857D01*
X170746200Y-125940857D02*
X170793819Y-125845619D01*
X170793819Y-125845619D02*
X170793819Y-125655143D01*
X170793819Y-125655143D02*
X170746200Y-125559905D01*
X170746200Y-125559905D02*
X170650961Y-125464667D01*
X170650961Y-125464667D02*
X170460485Y-125417048D01*
X170460485Y-125417048D02*
X170127152Y-125417048D01*
X170127152Y-125417048D02*
X169936676Y-125464667D01*
X169936676Y-125464667D02*
X169841438Y-125559905D01*
X169841438Y-125559905D02*
X169793819Y-125655143D01*
X170793819Y-126512286D02*
X169793819Y-126512286D01*
X169793819Y-126512286D02*
X170508104Y-126845619D01*
X170508104Y-126845619D02*
X169793819Y-127178952D01*
X169793819Y-127178952D02*
X170793819Y-127178952D01*
X170412866Y-127655143D02*
X170412866Y-128417048D01*
X169793819Y-128798000D02*
X169793819Y-129417047D01*
X169793819Y-129417047D02*
X170174771Y-129083714D01*
X170174771Y-129083714D02*
X170174771Y-129226571D01*
X170174771Y-129226571D02*
X170222390Y-129321809D01*
X170222390Y-129321809D02*
X170270009Y-129369428D01*
X170270009Y-129369428D02*
X170365247Y-129417047D01*
X170365247Y-129417047D02*
X170603342Y-129417047D01*
X170603342Y-129417047D02*
X170698580Y-129369428D01*
X170698580Y-129369428D02*
X170746200Y-129321809D01*
X170746200Y-129321809D02*
X170793819Y-129226571D01*
X170793819Y-129226571D02*
X170793819Y-128940857D01*
X170793819Y-128940857D02*
X170746200Y-128845619D01*
X170746200Y-128845619D02*
X170698580Y-128798000D01*
X169889057Y-129798000D02*
X169841438Y-129845619D01*
X169841438Y-129845619D02*
X169793819Y-129940857D01*
X169793819Y-129940857D02*
X169793819Y-130178952D01*
X169793819Y-130178952D02*
X169841438Y-130274190D01*
X169841438Y-130274190D02*
X169889057Y-130321809D01*
X169889057Y-130321809D02*
X169984295Y-130369428D01*
X169984295Y-130369428D02*
X170079533Y-130369428D01*
X170079533Y-130369428D02*
X170222390Y-130321809D01*
X170222390Y-130321809D02*
X170793819Y-129750381D01*
X170793819Y-129750381D02*
X170793819Y-130369428D01*
X170793819Y-130798000D02*
X169793819Y-130798000D01*
X169793819Y-130798000D02*
X169793819Y-131036095D01*
X169793819Y-131036095D02*
X169841438Y-131178952D01*
X169841438Y-131178952D02*
X169936676Y-131274190D01*
X169936676Y-131274190D02*
X170031914Y-131321809D01*
X170031914Y-131321809D02*
X170222390Y-131369428D01*
X170222390Y-131369428D02*
X170365247Y-131369428D01*
X170365247Y-131369428D02*
X170555723Y-131321809D01*
X170555723Y-131321809D02*
X170650961Y-131274190D01*
X170650961Y-131274190D02*
X170746200Y-131178952D01*
X170746200Y-131178952D02*
X170793819Y-131036095D01*
X170793819Y-131036095D02*
X170793819Y-130798000D01*
M02*
