M48
; DRILL file {KiCad 7.0.6} date Tue Aug  6 23:52:01 2024
; FORMAT={-:-/ absolute / inch / decimal}
; #@! TF.CreationDate,2024-08-06T23:52:01+05:30
; #@! TF.GenerationSoftware,Kicad,Pcbnew,7.0.6
; #@! TF.FileFunction,Plated,1,2,PTH
FMAT,2
INCH
; #@! TA.AperFunction,Plated,PTH,ViaDrill
T1C0.0157
; #@! TA.AperFunction,Plated,PTH,ComponentDrill
T2C0.0159
; #@! TA.AperFunction,Plated,PTH,ComponentDrill
T3C0.0236
; #@! TA.AperFunction,Plated,PTH,ComponentDrill
T4C0.0315
; #@! TA.AperFunction,Plated,PTH,ComponentDrill
T5C0.0354
; #@! TA.AperFunction,Plated,PTH,ComponentDrill
T6C0.0374
; #@! TA.AperFunction,Plated,PTH,ComponentDrill
T7C0.0394
; #@! TA.AperFunction,Plated,PTH,ComponentDrill
T8C0.0433
; #@! TA.AperFunction,Plated,PTH,ComponentDrill
T9C0.0472
; #@! TA.AperFunction,Plated,PTH,ComponentDrill
T10C0.0512
; #@! TA.AperFunction,Plated,PTH,ComponentDrill
T11C0.0551
%
G90
G05
T1
X4.059Y-5.006
X4.09Y-3.334
X4.5533Y-4.2276
X4.7391Y-3.9295
X4.8761Y-3.9606
X5.105Y-4.999
X5.1395Y-3.622
X5.142Y-3.697
X5.2336Y-3.9976
X5.386Y-3.491
X5.401Y-3.429
X5.56Y-3.679
X5.56Y-3.74
X5.744Y-3.477
X5.784Y-3.546
X5.9674Y-4.58
X6.132Y-4.034
X6.161Y-3.573
X6.178Y-3.481
X6.1785Y-3.4067
X6.266Y-4.22
X6.3025Y-4.2555
X6.339Y-3.053
X6.3872Y-4.0539
X6.616Y-3.756
X6.62Y-4.23
X6.62Y-4.268
X6.66Y-4.23
X6.66Y-4.27
X6.765Y-3.431
X6.773Y-3.286
X6.83Y-3.64
X6.835Y-3.226
X7.006Y-4.137
X7.03Y-2.85
X7.1Y-5.331
X7.107Y-4.138
X7.1157Y-4.8155
X7.1209Y-4.8706
X7.122Y-4.7585
X7.1796Y-4.7539
X7.1805Y-4.878
X7.1808Y-4.8212
X7.2379Y-4.7582
X7.2398Y-4.8175
X7.2413Y-4.8729
X7.27Y-3.67
X7.345Y-3.175
X7.385Y-3.835
X7.44Y-5.39
X7.4602Y-2.6432
X7.48Y-3.756
T2
X4.1919Y-5.2657
X4.3641Y-3.2614
X4.3907Y-5.2657
X4.563Y-3.2614
X5.6586Y-2.228
X5.8574Y-2.228
T3
X4.346Y-5.6567
X4.3972Y-5.4598
T4
X5.6674Y-4.8898
X5.6674Y-4.9898
X5.9674Y-4.8898
X5.9674Y-4.9898
T5
X6.1118Y-2.2719
X7.3868Y-2.2366
T6
X6.8531Y-3.957
X6.9516Y-3.957
X6.9717Y-5.792
X7.05Y-3.957
X7.0701Y-5.792
X7.1484Y-3.957
X7.1686Y-5.792
X7.267Y-5.792
X7.5973Y-2.9384
X7.5973Y-3.0368
X7.5973Y-3.1352
X7.5973Y-3.2336
T7
X4.451Y-2.8034
X4.451Y-3.0002
X5.1779Y-4.3418
X5.1779Y-4.8143
X5.3425Y-5.3524
X5.3425Y-5.5531
X5.5433Y-5.3524
X5.5433Y-5.5531
T8
X3.7569Y-2.9697
X3.7569Y-3.1469
X4.0128Y-2.9697
X4.0128Y-3.1469
X6.07Y-5.565
X6.07Y-5.7422
X6.3259Y-5.565
X6.3259Y-5.7422
T9
X3.8431Y-5.3405
X3.8431Y-5.4782
X3.858Y-4.1342
X3.858Y-4.272
X3.8915Y-2.6441
X3.8915Y-2.7819
X4.6748Y-5.2559
X4.6748Y-5.3543
X4.6748Y-5.4528
X4.6748Y-5.5512
X4.6748Y-5.6496
X5.0098Y-5.2559
X5.0098Y-5.3543
X5.0098Y-5.4528
X5.0098Y-5.5512
X5.0098Y-5.6496
T10
X4.6956Y-4.8162
X4.6976Y-4.3418
X5.2546Y-4.58
T11
X3.8399Y-3.5955
X3.8399Y-3.7333
X3.8399Y-3.8711
X3.853Y-4.5794
X3.853Y-4.7172
X3.853Y-4.855
T0
M30
