%TF.GenerationSoftware,KiCad,Pcbnew,7.0.6*%
%TF.CreationDate,2024-08-06T23:51:49+05:30*%
%TF.ProjectId,Icon_Power_Load_V2,49636f6e-5f50-46f7-9765-725f4c6f6164,rev?*%
%TF.SameCoordinates,Original*%
%TF.FileFunction,Soldermask,Top*%
%TF.FilePolarity,Negative*%
%FSLAX46Y46*%
G04 Gerber Fmt 4.6, Leading zero omitted, Abs format (unit mm)*
G04 Created by KiCad (PCBNEW 7.0.6) date 2024-08-06 23:51:49*
%MOMM*%
%LPD*%
G01*
G04 APERTURE LIST*
G04 Aperture macros list*
%AMRoundRect*
0 Rectangle with rounded corners*
0 $1 Rounding radius*
0 $2 $3 $4 $5 $6 $7 $8 $9 X,Y pos of 4 corners*
0 Add a 4 corners polygon primitive as box body*
4,1,4,$2,$3,$4,$5,$6,$7,$8,$9,$2,$3,0*
0 Add four circle primitives for the rounded corners*
1,1,$1+$1,$2,$3*
1,1,$1+$1,$4,$5*
1,1,$1+$1,$6,$7*
1,1,$1+$1,$8,$9*
0 Add four rect primitives between the rounded corners*
20,1,$1+$1,$2,$3,$4,$5,0*
20,1,$1+$1,$4,$5,$6,$7,0*
20,1,$1+$1,$6,$7,$8,$9,0*
20,1,$1+$1,$8,$9,$2,$3,0*%
G04 Aperture macros list end*
%ADD10RoundRect,0.250000X-0.412500X-0.650000X0.412500X-0.650000X0.412500X0.650000X-0.412500X0.650000X0*%
%ADD11RoundRect,0.250000X-0.650000X0.412500X-0.650000X-0.412500X0.650000X-0.412500X0.650000X0.412500X0*%
%ADD12RoundRect,0.250000X0.650000X-1.500000X0.650000X1.500000X-0.650000X1.500000X-0.650000X-1.500000X0*%
%ADD13RoundRect,0.250000X0.625000X-0.400000X0.625000X0.400000X-0.625000X0.400000X-0.625000X-0.400000X0*%
%ADD14C,1.800000*%
%ADD15RoundRect,0.250000X-0.400000X-0.625000X0.400000X-0.625000X0.400000X0.625000X-0.400000X0.625000X0*%
%ADD16C,4.300000*%
%ADD17C,1.600000*%
%ADD18RoundRect,0.250001X0.462499X0.624999X-0.462499X0.624999X-0.462499X-0.624999X0.462499X-0.624999X0*%
%ADD19RoundRect,0.150000X-0.587500X-0.150000X0.587500X-0.150000X0.587500X0.150000X-0.587500X0.150000X0*%
%ADD20RoundRect,0.102000X-1.104900X0.304800X-1.104900X-0.304800X1.104900X-0.304800X1.104900X0.304800X0*%
%ADD21R,1.000000X1.500000*%
%ADD22RoundRect,0.250000X0.400000X0.625000X-0.400000X0.625000X-0.400000X-0.625000X0.400000X-0.625000X0*%
%ADD23R,1.600000X1.600000*%
%ADD24O,1.600000X1.600000*%
%ADD25RoundRect,0.250001X0.624999X-0.462499X0.624999X0.462499X-0.624999X0.462499X-0.624999X-0.462499X0*%
%ADD26RoundRect,0.250000X0.650000X-0.412500X0.650000X0.412500X-0.650000X0.412500X-0.650000X-0.412500X0*%
%ADD27RoundRect,0.250000X-0.625000X0.400000X-0.625000X-0.400000X0.625000X-0.400000X0.625000X0.400000X0*%
%ADD28RoundRect,0.102000X0.575000X0.500000X-0.575000X0.500000X-0.575000X-0.500000X0.575000X-0.500000X0*%
%ADD29RoundRect,0.250000X-1.625000X0.587500X-1.625000X-0.587500X1.625000X-0.587500X1.625000X0.587500X0*%
%ADD30C,2.000000*%
%ADD31RoundRect,0.250000X1.950000X1.000000X-1.950000X1.000000X-1.950000X-1.000000X1.950000X-1.000000X0*%
%ADD32RoundRect,0.102000X-0.500000X0.575000X-0.500000X-0.575000X0.500000X-0.575000X0.500000X0.575000X0*%
%ADD33RoundRect,0.137000X-0.700000X-0.105000X0.700000X-0.105000X0.700000X0.105000X-0.700000X0.105000X0*%
%ADD34C,1.550000*%
%ADD35R,0.900000X1.500000*%
%ADD36R,1.500000X0.900000*%
%ADD37R,3.800000X3.800000*%
%ADD38RoundRect,0.250000X-0.725000X0.600000X-0.725000X-0.600000X0.725000X-0.600000X0.725000X0.600000X0*%
%ADD39O,1.950000X1.700000*%
%ADD40R,2.900000X5.400000*%
%ADD41C,0.911000*%
%ADD42RoundRect,0.150000X0.150000X-0.587500X0.150000X0.587500X-0.150000X0.587500X-0.150000X-0.587500X0*%
%ADD43RoundRect,0.102000X-0.875000X0.875000X-0.875000X-0.875000X0.875000X-0.875000X0.875000X0.875000X0*%
%ADD44C,1.954000*%
%ADD45R,2.000000X2.000000*%
%ADD46RoundRect,0.102000X0.800000X0.325000X-0.800000X0.325000X-0.800000X-0.325000X0.800000X-0.325000X0*%
%ADD47RoundRect,0.102000X-2.420000X-2.710000X2.420000X-2.710000X2.420000X2.710000X-2.420000X2.710000X0*%
%ADD48R,1.500000X2.000000*%
%ADD49R,3.800000X2.000000*%
%ADD50RoundRect,0.250000X0.412500X0.650000X-0.412500X0.650000X-0.412500X-0.650000X0.412500X-0.650000X0*%
%ADD51RoundRect,0.102000X-0.900000X-0.900000X0.900000X-0.900000X0.900000X0.900000X-0.900000X0.900000X0*%
%ADD52C,2.004000*%
%ADD53R,1.450000X0.750000*%
%ADD54RoundRect,0.250000X0.600000X0.725000X-0.600000X0.725000X-0.600000X-0.725000X0.600000X-0.725000X0*%
%ADD55O,1.700000X1.950000*%
%ADD56RoundRect,0.250000X-0.600000X-0.725000X0.600000X-0.725000X0.600000X0.725000X-0.600000X0.725000X0*%
%ADD57R,1.900000X0.450000*%
%ADD58C,3.000000*%
%ADD59C,2.500000*%
%ADD60RoundRect,0.102000X-0.900000X0.900000X-0.900000X-0.900000X0.900000X-0.900000X0.900000X0.900000X0*%
%ADD61C,3.200000*%
%ADD62RoundRect,0.250000X1.000000X-1.950000X1.000000X1.950000X-1.000000X1.950000X-1.000000X-1.950000X0*%
%ADD63RoundRect,0.102000X0.300000X-0.270000X0.300000X0.270000X-0.300000X0.270000X-0.300000X-0.270000X0*%
%ADD64RoundRect,0.102000X-0.270000X-0.300000X0.270000X-0.300000X0.270000X0.300000X-0.270000X0.300000X0*%
%ADD65R,1.500000X1.000000*%
%ADD66RoundRect,0.102000X0.875000X-0.875000X0.875000X0.875000X-0.875000X0.875000X-0.875000X-0.875000X0*%
%ADD67RoundRect,0.250000X-1.950000X-1.000000X1.950000X-1.000000X1.950000X1.000000X-1.950000X1.000000X0*%
G04 APERTURE END LIST*
D10*
%TO.C,C10*%
X153479100Y-83921600D03*
X156604100Y-83921600D03*
%TD*%
D11*
%TO.C,C9*%
X169976800Y-66941300D03*
X169976800Y-70066300D03*
%TD*%
D12*
%TO.C,D1*%
X106426000Y-65746000D03*
X106426000Y-60746000D03*
%TD*%
D13*
%TO.C,R4*%
X116103400Y-90653200D03*
X116103400Y-87553200D03*
%TD*%
D14*
%TO.C,TP_3v3*%
X187624000Y-56810000D03*
%TD*%
D15*
%TO.C,R24*%
X150596000Y-99669600D03*
X153696000Y-99669600D03*
%TD*%
D16*
%TO.C,H5*%
X195964000Y-57530000D03*
%TD*%
D17*
%TO.C,Varistor*%
X110389000Y-143680000D03*
X111689000Y-138680000D03*
%TD*%
D18*
%TO.C,D6*%
X98490100Y-129616200D03*
X95515100Y-129616200D03*
%TD*%
D15*
%TO.C,R7*%
X147802000Y-120142000D03*
X150902000Y-120142000D03*
%TD*%
D19*
%TO.C,Q2*%
X177449000Y-76647000D03*
X177449000Y-78547000D03*
X179324000Y-77597000D03*
%TD*%
D20*
%TO.C,U8*%
X164007800Y-84582000D03*
X164007800Y-85852000D03*
X164007800Y-87122000D03*
X164007800Y-88392000D03*
X169240200Y-88392000D03*
X169240200Y-87122000D03*
X169240200Y-85852000D03*
X169240200Y-84582000D03*
%TD*%
D21*
%TO.C,JP2_5v*%
X151064000Y-63530000D03*
X152364000Y-63530000D03*
%TD*%
D22*
%TO.C,R17*%
X171095000Y-92456000D03*
X167995000Y-92456000D03*
%TD*%
D23*
%TO.C,U6*%
X143951800Y-124201000D03*
D24*
X143951800Y-126741000D03*
X151571800Y-126741000D03*
X151571800Y-124201000D03*
%TD*%
D25*
%TO.C,D5*%
X95964000Y-86327500D03*
X95964000Y-83352500D03*
%TD*%
D26*
%TO.C,C3*%
X130048000Y-59423700D03*
X130048000Y-56298700D03*
%TD*%
D13*
%TO.C,R26*%
X111328200Y-110033400D03*
X111328200Y-106933400D03*
%TD*%
D27*
%TO.C,R27*%
X105943400Y-104622000D03*
X105943400Y-107722000D03*
%TD*%
D13*
%TO.C,R8*%
X173736000Y-78385000D03*
X173736000Y-75285000D03*
%TD*%
D28*
%TO.C,L2*%
X149942800Y-84124800D03*
X147592800Y-84124800D03*
%TD*%
D11*
%TO.C,C17*%
X147218400Y-101002700D03*
X147218400Y-104127700D03*
%TD*%
D26*
%TO.C,C18*%
X123234000Y-96542500D03*
X123234000Y-93417500D03*
%TD*%
D16*
%TO.C,H6*%
X195964000Y-94792800D03*
%TD*%
D29*
%TO.C,D2*%
X124790200Y-71218500D03*
X124790200Y-75593500D03*
%TD*%
D13*
%TO.C,R15*%
X182981600Y-77623000D03*
X182981600Y-74523000D03*
%TD*%
D30*
%TO.C,SW2*%
X154178000Y-141351000D03*
X160678000Y-141351000D03*
X154178000Y-145851000D03*
X160678000Y-145851000D03*
%TD*%
D16*
%TO.C,H3*%
X97964000Y-146130000D03*
%TD*%
D15*
%TO.C,R16*%
X174218000Y-84709000D03*
X177318000Y-84709000D03*
%TD*%
D22*
%TO.C,R6*%
X157302800Y-120142000D03*
X154202800Y-120142000D03*
%TD*%
D31*
%TO.C,C5*%
X163720000Y-72466200D03*
X156320000Y-72466200D03*
%TD*%
D32*
%TO.C,L3*%
X159969200Y-86988400D03*
X159969200Y-89338400D03*
%TD*%
D27*
%TO.C,R19*%
X187833000Y-83794000D03*
X187833000Y-86894000D03*
%TD*%
D33*
%TO.C,U5*%
X149564200Y-87544400D03*
X149564200Y-88044400D03*
X149564200Y-88544400D03*
X149564200Y-89044400D03*
X149564200Y-89544400D03*
X153864200Y-89544400D03*
X153864200Y-89044400D03*
X153864200Y-88544400D03*
X153864200Y-88044400D03*
X153864200Y-87544400D03*
%TD*%
D34*
%TO.C,D3*%
X140800000Y-141050000D03*
X140800000Y-135950000D03*
X135700000Y-135950000D03*
X135700000Y-141050000D03*
%TD*%
D35*
%TO.C,U1*%
X190089000Y-115048000D03*
X188819000Y-115048000D03*
X187549000Y-115048000D03*
X186279000Y-115048000D03*
X185009000Y-115048000D03*
X183739000Y-115048000D03*
X182469000Y-115048000D03*
X181199000Y-115048000D03*
X179929000Y-115048000D03*
X178659000Y-115048000D03*
X177389000Y-115048000D03*
X176119000Y-115048000D03*
X174849000Y-115048000D03*
X173579000Y-115048000D03*
D36*
X172329000Y-118088000D03*
X172329000Y-119358000D03*
X172329000Y-120628000D03*
X172329000Y-121898000D03*
X172329000Y-123168000D03*
X172329000Y-124438000D03*
X172329000Y-125708000D03*
X172329000Y-126978000D03*
X172329000Y-128248000D03*
X172329000Y-129518000D03*
D35*
X173579000Y-132548000D03*
X174849000Y-132548000D03*
X176119000Y-132548000D03*
X177389000Y-132548000D03*
X178659000Y-132548000D03*
X179929000Y-132548000D03*
X181199000Y-132548000D03*
X182469000Y-132548000D03*
X183739000Y-132548000D03*
X185009000Y-132548000D03*
X186279000Y-132548000D03*
X187549000Y-132548000D03*
X188819000Y-132548000D03*
X190089000Y-132548000D03*
D37*
X182369000Y-122298000D03*
%TD*%
D38*
%TO.C,J3*%
X192971300Y-74634400D03*
D39*
X192971300Y-77134400D03*
X192971300Y-79634400D03*
X192971300Y-82134400D03*
%TD*%
D40*
%TO.C,L1*%
X130457400Y-74244200D03*
X140357400Y-74244200D03*
%TD*%
D41*
%TO.C,F3*%
X106475000Y-133750000D03*
X111525000Y-133750000D03*
%TD*%
D22*
%TO.C,RESP1*%
X186944600Y-110083600D03*
X183844600Y-110083600D03*
%TD*%
D41*
%TO.C,F2*%
X143728200Y-56591200D03*
X148778200Y-56591200D03*
%TD*%
D42*
%TO.C,Q1*%
X154244000Y-117193300D03*
X156144000Y-117193300D03*
X155194000Y-115318300D03*
%TD*%
D26*
%TO.C,C15*%
X105156000Y-100393900D03*
X105156000Y-97268900D03*
%TD*%
D15*
%TO.C,R5*%
X133730400Y-126974600D03*
X136830400Y-126974600D03*
%TD*%
D43*
%TO.C,J5*%
X97534400Y-91326300D03*
D44*
X97534400Y-94826300D03*
X97534400Y-98326300D03*
%TD*%
D45*
%TO.C,C1*%
X113055400Y-76205477D03*
D30*
X113055400Y-71205477D03*
%TD*%
D46*
%TO.C,U2*%
X121178000Y-66924000D03*
X121178000Y-65654000D03*
X121183000Y-64384000D03*
X121183000Y-63114000D03*
X121183000Y-61844000D03*
D47*
X113998000Y-64389000D03*
%TD*%
D22*
%TO.C,R2*%
X116332600Y-59410600D03*
X113232600Y-59410600D03*
%TD*%
D13*
%TO.C,R18*%
X180848000Y-92101000D03*
X180848000Y-89001000D03*
%TD*%
D48*
%TO.C,U3*%
X159498000Y-63703600D03*
X161798000Y-63703600D03*
D49*
X161798000Y-57403600D03*
D48*
X164098000Y-63703600D03*
%TD*%
D15*
%TO.C,R23*%
X162214000Y-99990000D03*
X165314000Y-99990000D03*
%TD*%
D50*
%TO.C,C13*%
X170472500Y-81153000D03*
X167347500Y-81153000D03*
%TD*%
D26*
%TO.C,C14*%
X119735600Y-90741900D03*
X119735600Y-87616900D03*
%TD*%
D11*
%TO.C,C22*%
X130324000Y-98537500D03*
X130324000Y-101662500D03*
%TD*%
D13*
%TO.C,R25*%
X115646200Y-104775600D03*
X115646200Y-101675600D03*
%TD*%
D12*
%TO.C,D4*%
X141478000Y-115276000D03*
X141478000Y-110276000D03*
%TD*%
D51*
%TO.C,U4*%
X118740000Y-133500000D03*
D52*
X118740000Y-136000000D03*
X118740000Y-138500000D03*
X118740000Y-141000000D03*
X118740000Y-143500000D03*
X127250000Y-143500000D03*
X127250000Y-141000000D03*
X127250000Y-138500000D03*
X127250000Y-136000000D03*
X127250000Y-133500000D03*
%TD*%
D53*
%TO.C,RV1*%
X143662400Y-64625400D03*
X143662400Y-62425400D03*
%TD*%
D11*
%TO.C,C12*%
X139819400Y-102886100D03*
X139819400Y-106011100D03*
%TD*%
D19*
%TO.C,Q3*%
X182069500Y-82870000D03*
X182069500Y-84770000D03*
X183944500Y-83820000D03*
%TD*%
D54*
%TO.C,J1*%
X184581800Y-147116800D03*
D55*
X182081800Y-147116800D03*
X179581800Y-147116800D03*
X177081800Y-147116800D03*
%TD*%
D56*
%TO.C,J2*%
X174070000Y-100507800D03*
D55*
X176570000Y-100507800D03*
X179070000Y-100507800D03*
X181570000Y-100507800D03*
%TD*%
D16*
%TO.C,H4*%
X97964000Y-57530000D03*
%TD*%
D57*
%TO.C,IC1*%
X143663400Y-99449600D03*
X143663400Y-98799600D03*
X143663400Y-98149600D03*
X143663400Y-97499600D03*
X143663400Y-96849600D03*
X143663400Y-96199600D03*
X143663400Y-95549600D03*
X143663400Y-94899600D03*
X143663400Y-94249600D03*
X143663400Y-93599600D03*
X143663400Y-92949600D03*
X143663400Y-92299600D03*
X143663400Y-91649600D03*
X143663400Y-90999600D03*
X134263400Y-90999600D03*
X134263400Y-91649600D03*
X134263400Y-92299600D03*
X134263400Y-92949600D03*
X134263400Y-93599600D03*
X134263400Y-94249600D03*
X134263400Y-94899600D03*
X134263400Y-95549600D03*
X134263400Y-96199600D03*
X134263400Y-96849600D03*
X134263400Y-97499600D03*
X134263400Y-98149600D03*
X134263400Y-98799600D03*
X134263400Y-99449600D03*
%TD*%
D13*
%TO.C,R20*%
X100459800Y-86390000D03*
X100459800Y-83290000D03*
%TD*%
D58*
%TO.C,K1*%
X133468000Y-116332000D03*
D59*
X131518000Y-110282000D03*
D58*
X119318000Y-110282000D03*
X119268000Y-122332000D03*
D59*
X131518000Y-122282000D03*
%TD*%
D14*
%TO.C,TP_5v*%
X155239000Y-57705000D03*
%TD*%
D60*
%TO.C,J7*%
X97614000Y-135647500D03*
D52*
X97614000Y-139147500D03*
%TD*%
D60*
%TO.C,J8*%
X97993200Y-105008800D03*
D52*
X97993200Y-108508800D03*
%TD*%
D26*
%TO.C,C19*%
X126923800Y-96393000D03*
X126923800Y-93268000D03*
%TD*%
D30*
%TO.C,SW1*%
X101924000Y-79930000D03*
X95424000Y-79930000D03*
X101924000Y-75430000D03*
X95424000Y-75430000D03*
%TD*%
D10*
%TO.C,C16*%
X186880100Y-107238800D03*
X190005100Y-107238800D03*
%TD*%
D61*
%TO.C,H1*%
X124414000Y-54878000D03*
%TD*%
D41*
%TO.C,F1*%
X110849000Y-82840000D03*
X115899000Y-82840000D03*
%TD*%
D10*
%TO.C,C8*%
X162013500Y-92354400D03*
X165138500Y-92354400D03*
%TD*%
D62*
%TO.C,C2*%
X136093200Y-63618600D03*
X136093200Y-56218600D03*
%TD*%
D63*
%TO.C,FB1*%
X120124000Y-96302000D03*
X120124000Y-95438000D03*
%TD*%
D11*
%TO.C,C11*%
X136263400Y-102886100D03*
X136263400Y-106011100D03*
%TD*%
D22*
%TO.C,R1*%
X122174600Y-59436000D03*
X119074600Y-59436000D03*
%TD*%
D60*
%TO.C,J4*%
X98844000Y-67160000D03*
D52*
X98844000Y-70660000D03*
%TD*%
D64*
%TO.C,FB2*%
X126932000Y-98610000D03*
X127796000Y-98610000D03*
%TD*%
D15*
%TO.C,R3*%
X106474000Y-88030000D03*
X109574000Y-88030000D03*
%TD*%
D61*
%TO.C,H2*%
X169414000Y-148751000D03*
%TD*%
D65*
%TO.C,JP_3v3*%
X189539000Y-62105000D03*
X189539000Y-63405000D03*
%TD*%
D66*
%TO.C,J6*%
X97866200Y-123317000D03*
D44*
X97866200Y-119817000D03*
X97866200Y-116317000D03*
%TD*%
D11*
%TO.C,C6*%
X127203200Y-59422900D03*
X127203200Y-62547900D03*
%TD*%
%TO.C,C4*%
X183108600Y-61353300D03*
X183108600Y-64478300D03*
%TD*%
D15*
%TO.C,R22*%
X155803000Y-96316800D03*
X158903000Y-96316800D03*
%TD*%
D67*
%TO.C,C7*%
X171280600Y-57785000D03*
X178680600Y-57785000D03*
%TD*%
M02*
